{"title":"Kanye West Ft. Big Sean, Pusha T &amp; 2 Chainz - Mercy [Explici","uid":8760167,"size":48435932,"categoryP":"video","categoryS":"music_videos","magnet":"?xt=urn:btih:04be093c7aac8505be3801c7ad70f2a7d435d11f&amp;dn=Kanye+West+Ft.+Big+Sean%2C+Pusha+T+%26amp%3B+2+Chainz+-+Mercy+%5BExplici&amp;tr=udp%3A%2F%2Ftracker.openbittorrent.com%3A80&amp;tr=udp%3A%2F%2Fopen.demonii.com%3A1337&amp;tr=udp%3A%2F%2Ftracker.coppersurfer.tk%3A6969&amp;tr=udp%3A%2F%2Fexodus.desync.com%3A6969","seeders":1,"leechers":0,"uploader":"Sbyky","files":-1,"time":1375226784,"description":"[IMG]http://www.shotpix.com/photos/20130730137521632651449.jpg[/IMG]\n\nGeneral\nComplete name                            : Kanye West Ft. Big Sean, Pusha T &amp; 2 Chainz - Mercy [Explicit] 720p [Sbyky].MP4\nFormat                                   : MPEG-4\nFormat profile                           : Base Media / Version 2\nCodec ID                                 : mp42\nFile size                                : 46.2 MiB\nDuration                                 : 5mn 33s\nOverall bit rate mode                    : Variable\nOverall bit rate                         : 1 161 Kbps\nEncoded date                             : UTC 2012-06-04 14:53:40\nTagged date                              : UTC 2012-06-04 14:53:40\n\nVideo\nID                                       : 1\nFormat                                   : AVC\nFormat/Info                              : Advanced Video Codec\nFormat profile                           : &lt;a class=&quot;__cf_email__&quot; href=&quot;/cdn-cgi/l/email-protection&quot; data-cfemail=&quot;6e260709062e225d405f&quot;&gt;[email&amp;#160;protected]&lt;/a&gt;&lt;script cf-hash='f9e31' type=&quot;text/javascript&quot;&gt;\n/* &lt;![CDATA[ */!function(){try{var t=&quot;currentScript&quot;in document?document.currentScript:function(){for(var t=document.getElementsByTagName(&quot;script&quot;),e=t.length;e--;)if(t[e].getAttribute(&quot;cf-hash&quot;))return t[e]}();if(t&amp;&amp;t.previousSibling){var e,r,n,i,c=t.previousSibling,a=c.getAttribute(&quot;data-cfemail&quot;);if(a){for(e=&quot;&quot;,r=parseInt(a.substr(0,2),16),n=2;a.length-n;n+=2)i=parseInt(a.substr(n,2),16)^r,e+=String.fromCharCode(i);e=document.createTextNode(e),c.parentNode.replaceChild(e,c)}}}catch(u){}}();/* ]]&gt; */&lt;/script&gt;\nFormat settings, CABAC                   : Yes\nFormat settings, ReFrames                : 1 frame\nFormat settings, GOP                     : M=1, N=30\nCodec ID                                 : avc1\nCodec ID/Info                            : Advanced Video Coding\nDuration                                 : 5mn 33s\nBit rate                                 : 1 009 Kbps\nMaximum bit rate                         : 2 151 Kbps\nWidth                                    : 1 280 pixels\nHeight                                   : 720 pixels\nDisplay aspect ratio                     : 16:9\nFrame rate mode                          : Constant\nFrame rate                               : 23.976 fps\nColor space                              : YUV\nChroma subsampling                       : 4:2:0\nBit depth                                : 8 bits\nScan type                                : Progressive\nBits/(Pixel*Frame)                       : 0.046\nStream size                              : 40.1 MiB (87%)\nTagged date                              : UTC 2012-06-04 14:53:40\n\nAudio\nID                                       : 2\nFormat                                   : AAC\nFormat/Info                              : Advanced Audio Codec\nFormat profile                           : LC\nCodec ID                                 : 40\nDuration                                 : 5mn 33s\nBit rate mode                            : Variable\nBit rate                                 : 150 Kbps\nMaximum bit rate                         : 187 Kbps\nChannel(s)                               : 2 channels\nChannel positions                        : Front: L R\nSampling rate                            : 44.1 KHz\nCompression mode                         : Lossy\nStream size                              : 5.96 MiB (13%)\nTitle                                    : IsoMedia File Produced by Google, 5-11-2011\nEncoded date                             : UTC 2012-06-04 14:53:40\nTagged date                              : UTC 2012-06-04 14:53:40\n\nShared By Sbyky\n[IMG]http://www.shotpix.com/photos/20130722137449689157289.gif[/IMG]\n[IMG]http://www.shotpix.com/photos/20130722137449694197310.gif[/IMG]","torrent":{"xt":"urn:btih:04be093c7aac8505be3801c7ad70f2a7d435d11f","amp;dn":"Kanye+West+Ft.+Big+Sean%2C+Pusha+T+%26amp%3B+2+Chainz+-+Mercy+%5BExplici","amp;tr":["udp%3A%2F%2Ftracker.openbittorrent.com%3A80","udp%3A%2F%2Fopen.demonii.com%3A1337","udp%3A%2F%2Ftracker.coppersurfer.tk%3A6969","udp%3A%2F%2Fexodus.desync.com%3A6969"],"infoHash":"04be093c7aac8505be3801c7ad70f2a7d435d11f","infoHashBuffer":{"type":"Buffer","data":[4,190,9,60,122,172,133,5,190,56,1,199,173,112,242,167,212,53,209,31]},"announce":[],"urlList":[]}}